<?xml version="1.0" encoding="UTF-8" standalone="no"?>
<!DOCTYPE svg PUBLIC "-//W3C//DTD SVG 1.1//EN" "http://www.w3.org/Graphics/SVG/1.1/DTD/svg11.dtd">
<svg width="100%" height="100%" viewBox="0 0 1080 1080" version="1.1" xmlns="http://www.w3.org/2000/svg" xmlns:xlink="http://www.w3.org/1999/xlink" xml:space="preserve" xmlns:serif="http://www.serif.com/" style="fill-rule:evenodd;clip-rule:evenodd;stroke-linecap:round;stroke-linejoin:round;stroke-miterlimit:1.5;">
    <g transform="matrix(1.595737,0,0,1.595737,-340.954663,-254.927874)">
        <path d="M540,553.16L568.103,553.16" style="fill:none;stroke:black;stroke-width:0.75px;"/>
    </g>
    <g transform="matrix(1.595737,0,0,1.595737,-340.954663,-254.927874)">
        <path d="M535.048,556.666L568.103,556.666" style="fill:none;stroke:black;stroke-width:0.75px;"/>
    </g>
    <g transform="matrix(1.595737,0,0,1.595737,-340.954663,-254.927874)">
        <path d="M530.553,562.097L568.103,562.659" style="fill:none;stroke:black;stroke-width:0.75px;"/>
    </g>
    <g transform="matrix(1.595737,0,0,1.595737,-340.954663,-254.927874)">
        <path d="M568.103,568.09L517.069,568.09" style="fill:none;stroke:black;stroke-width:0.75px;"/>
    </g>
    <g transform="matrix(1.595737,0,0,1.595737,-340.954663,-254.927874)">
        <path d="M562.578,573.521L496.094,573.521" style="fill:none;stroke:black;stroke-width:0.75px;"/>
    </g>
    <g transform="matrix(1.595737,0,0,1.595737,-340.954663,-254.927874)">
        <path d="M556.585,578.952L479.426,578.952" style="fill:none;stroke:black;stroke-width:0.75px;"/>
    </g>
    <g transform="matrix(1.595737,0,0,1.595737,-340.954663,-254.927874)">
        <path d="M496.094,597.887L466.186,597.887" style="fill:none;stroke:black;stroke-width:0.75px;"/>
    </g>
    <g transform="matrix(1.595737,0,0,1.595737,-340.954663,-254.927874)">
        <path d="M504.344,590.864L470.165,590.864" style="fill:none;stroke:black;stroke-width:0.75px;"/>
    </g>
    <g transform="matrix(1.595737,0,0,1.595737,-340.954663,-254.927874)">
        <path d="M518.005,584.383L475.55,584.383" style="fill:none;stroke:black;stroke-width:0.75px;"/>
    </g>
    <g transform="matrix(1.595737,0,0,1.595737,-340.954663,-254.927874)">
        <path d="M504.344,601.632L518.005,601.632" style="fill:none;stroke:black;stroke-width:0.75px;"/>
    </g>
    <g transform="matrix(1.595737,0,0,1.595737,-340.954663,-254.927874)">
        <path d="M521.86,597.887L545.546,597.887" style="fill:none;stroke:black;stroke-width:0.75px;"/>
    </g>
    <g transform="matrix(1.595737,0,0,1.595737,-340.954663,-254.927874)">
        <path d="M549.291,601.632L558.187,601.632" style="fill:none;stroke:black;stroke-width:0.75px;"/>
    </g>
    <g transform="matrix(1.595737,0,0,1.595737,-340.954663,-254.927874)">
        <path d="M592.197,603.636L563.881,603.636" style="fill:none;stroke:black;stroke-width:0.75px;"/>
    </g>
    <g transform="matrix(1.595737,0,0,1.595737,-340.954663,-254.927874)">
        <path d="M598.939,607.532L608.828,607.532" style="fill:none;stroke:black;stroke-width:0.75px;"/>
    </g>
    <g transform="matrix(1.595737,0,0,1.595737,-340.954663,-254.927874)">
        <path d="M608.828,614.873L616.769,614.873" style="fill:none;stroke:black;stroke-width:0.75px;"/>
    </g>
    <g transform="matrix(1.595737,0,0,1.595737,-340.954663,-254.927874)">
        <path d="M581.11,578.466L625.758,578.466" style="fill:none;stroke:black;stroke-width:0.75px;"/>
    </g>
    <g transform="matrix(1.595737,0,0,1.595737,-340.954663,-254.927874)">
        <path d="M576.016,574.121L620.364,574.121" style="fill:none;stroke:black;stroke-width:0.75px;"/>
    </g>
    <g transform="matrix(1.595737,0,0,1.595737,-340.954663,-254.927874)">
        <path d="M576.016,569.476L612.798,569.476" style="fill:none;stroke:black;stroke-width:0.75px;"/>
    </g>
    <g transform="matrix(1.595737,0,0,1.595737,-340.954663,-254.927874)">
        <path d="M576.016,564.832L608.828,564.832" style="fill:none;stroke:black;stroke-width:0.75px;"/>
    </g>
    <g transform="matrix(1.595737,0,0,1.595737,-340.954663,-254.927874)">
        <path d="M578.264,560.187L603.434,560.187" style="fill:none;stroke:black;stroke-width:0.75px;"/>
    </g>
    <g transform="matrix(1.595737,0,0,1.595737,-340.954663,-254.927874)">
        <path d="M583.807,555.543L596.842,555.543" style="fill:none;stroke:black;stroke-width:0.75px;"/>
    </g>
    <g transform="matrix(1.595737,0,0,1.595737,-340.954663,-254.927874)">
        <path d="M540,647.549L576.016,647.549" style="fill:none;stroke:black;stroke-width:0.75px;"/>
    </g>
    <g transform="matrix(1.595737,0,0,1.595737,-340.954663,-254.927874)">
        <path d="M546.812,642.575L583.807,642.575" style="fill:none;stroke:black;stroke-width:0.75px;"/>
    </g>
    <g transform="matrix(1.595737,0,0,1.595737,-340.954663,-254.927874)">
        <path d="M537.156,636.722L570.808,636.722" style="fill:none;stroke:black;stroke-width:0.75px;"/>
    </g>
    <g transform="matrix(1.595737,0,0,1.595737,-340.954663,-254.927874)">
        <path d="M553.982,639.649L590.325,639.649" style="fill:none;stroke:black;stroke-width:0.75px;"/>
    </g>
    <g transform="matrix(1.595737,0,0,1.595737,-340.954663,-254.927874)">
        <path d="M546.812,653.402L570.808,653.402" style="fill:none;stroke:black;stroke-width:0.75px;"/>
    </g>
    <g transform="matrix(1.595737,0,0,1.595737,-340.954663,-254.927874)">
        <path d="M553.982,659.254L570.808,659.254" style="fill:none;stroke:black;stroke-width:0.75px;"/>
    </g>
    <g transform="matrix(1.595737,0,0,1.595737,-340.954663,-254.927874)">
        <path d="M593.047,744.116L503.796,744.116" style="fill:none;stroke:black;stroke-width:0.75px;"/>
    </g>
    <g transform="matrix(1.595737,0,0,1.595737,-340.954663,-254.927874)">
        <path d="M611.19,737.093L487.409,737.093" style="fill:none;stroke:black;stroke-width:0.75px;"/>
    </g>
    <g transform="matrix(1.595737,0,0,1.595737,-340.954663,-254.927874)">
        <path d="M473.363,727.144L624.358,727.144" style="fill:none;stroke:black;stroke-width:0.75px;"/>
    </g>
    <g transform="matrix(1.595737,0,0,1.595737,-340.954663,-254.927874)">
        <path d="M466.048,718.657L570.808,718.657" style="fill:none;stroke:black;stroke-width:0.75px;"/>
    </g>
    <g transform="matrix(1.595737,0,0,1.595737,-340.954663,-254.927874)">
        <path d="M453.172,711.634L540,711.634" style="fill:none;stroke:black;stroke-width:0.75px;"/>
    </g>
    <g transform="matrix(1.595737,0,0,1.595737,-340.954663,-254.927874)">
        <path d="M443.808,702.27L503.796,702.27" style="fill:none;stroke:black;stroke-width:0.75px;"/>
    </g>
    <g transform="matrix(1.595737,0,0,1.595737,-340.954663,-254.927874)">
        <path d="M432.981,694.955L496.586,694.955" style="fill:none;stroke:black;stroke-width:0.75px;"/>
    </g>
    <g transform="matrix(1.595737,0,0,1.595737,-340.954663,-254.927874)">
        <path d="M464.783,685.591L493.847,685.591" style="fill:none;stroke:black;stroke-width:0.75px;"/>
    </g>
    <g transform="matrix(1.595737,0,0,1.595737,-340.954663,-254.927874)">
        <path d="M421.569,685.591L448.197,685.591" style="fill:none;stroke:black;stroke-width:0.75px;"/>
    </g>
    <g transform="matrix(1.595737,0,0,1.595737,-340.954663,-254.927874)">
        <path d="M416.009,673.008L434.883,673.008" style="fill:none;stroke:black;stroke-width:0.75px;"/>
    </g>
    <g transform="matrix(1.595737,0,0,1.595737,-340.954663,-254.927874)">
        <path d="M418.35,680.324L439.711,680.324" style="fill:none;stroke:black;stroke-width:0.75px;"/>
    </g>
    <g transform="matrix(1.595737,0,0,1.595737,-340.954663,-254.927874)">
        <path d="M409.278,664.522L429.03,664.522" style="fill:none;stroke:black;stroke-width:0.75px;"/>
    </g>
    <g transform="matrix(4.228653,0,0,1.595737,-1404.68158,-254.927874)">
        <path d="M404.011,653.402L425.446,653.402" style="fill:none;stroke:black;stroke-width:0.37px;"/>
    </g>
    <g transform="matrix(1.595737,0,0,1.595737,-340.954663,-254.927874)">
        <path d="M392.013,634.967L414.728,634.967" style="fill:none;stroke:black;stroke-width:0.75px;"/>
    </g>
    <g transform="matrix(3.576405,0,0,1.595737,-1127.835837,-254.927874)">
        <path d="M397.281,640.526L419.154,640.526" style="fill:none;stroke:black;stroke-width:0.43px;"/>
    </g>
    <g transform="matrix(1.595737,0,0,1.595737,-340.954663,-254.927874)">
        <path d="M403.371,649.013L421.861,649.013" style="fill:none;stroke:black;stroke-width:0.75px;"/>
    </g>
    <g transform="matrix(3.164249,0,0,1.595737,-955.832219,-254.927874)">
        <path d="M392.013,623.554L403.371,623.554" style="fill:none;stroke:black;stroke-width:0.48px;"/>
    </g>
    <g transform="matrix(2.664457,0,0,1.595737,-749.58711,-254.927874)">
        <path d="M382.357,591.658L397.692,591.658" style="fill:none;stroke:black;stroke-width:0.55px;"/>
    </g>
    <g transform="matrix(1.595737,0,0,1.595737,-340.954663,-254.927874)">
        <path d="M382.357,580.246L400.792,580.246" style="fill:none;stroke:black;stroke-width:0.75px;"/>
    </g>
    <g transform="matrix(1.595737,0,0,1.595737,-340.954663,-254.927874)">
        <path d="M386.453,494.214L369.481,494.214" style="fill:none;stroke:black;stroke-width:0.75px;"/>
    </g>
    <g transform="matrix(1.595737,0,0,1.595737,-340.954663,-254.927874)">
        <path d="M390.024,484.264L360.41,484.264" style="fill:none;stroke:black;stroke-width:0.75px;"/>
    </g>
    <g transform="matrix(1.595737,0,0,1.595737,-340.954663,-254.927874)">
        <path d="M386.453,473.023L340.511,473.023" style="fill:none;stroke:black;stroke-width:0.75px;"/>
    </g>
    <g transform="matrix(1.595737,0,0,1.595737,-340.954663,-254.927874)">
        <path d="M390.024,457.928L349.29,457.928" style="fill:none;stroke:black;stroke-width:0.75px;"/>
    </g>
    <g transform="matrix(1.595737,0,0,1.595737,-340.954663,-254.927874)">
        <path d="M394.647,442.126L349.29,442.126" style="fill:none;stroke:black;stroke-width:0.75px;"/>
    </g>
    <g transform="matrix(1.595737,0,0,1.595737,-340.954663,-254.927874)">
        <path d="M400.792,427.495L349.29,427.495" style="fill:none;stroke:black;stroke-width:0.75px;"/>
    </g>
    <g transform="matrix(1.595737,0,0,1.595737,-340.954663,-254.927874)">
        <path d="M406.645,417.253L346.949,417.253" style="fill:none;stroke:black;stroke-width:0.75px;"/>
    </g>
    <g transform="matrix(1.595737,0,0,1.595737,-340.954663,-254.927874)">
        <path d="M406.645,405.255L346.949,405.255" style="fill:none;stroke:black;stroke-width:0.75px;"/>
    </g>
    <g transform="matrix(1.595737,0,0,1.595737,-340.954663,-254.927874)">
        <path d="M406.645,384.772L346.949,384.772" style="fill:none;stroke:black;stroke-width:0.75px;"/>
    </g>
    <g transform="matrix(1.595737,0,0,1.595737,-340.954663,-254.927874)">
        <path d="M403.133,395.013L353.094,395.013" style="fill:none;stroke:black;stroke-width:0.75px;"/>
    </g>
    <g transform="matrix(1.595737,0,0,1.595737,-340.954663,-254.927874)">
        <path d="M406.645,368.677L346.949,368.677" style="fill:none;stroke:black;stroke-width:0.75px;"/>
    </g>
    <g transform="matrix(1.595737,0,0,1.595737,-340.954663,-254.927874)">
        <path d="M409.278,349.364L346.949,349.364" style="fill:none;stroke:black;stroke-width:0.75px;"/>
    </g>
    <g transform="matrix(1.595737,0,0,1.595737,-340.954663,-254.927874)">
        <path d="M406.645,332.099L341.974,332.099" style="fill:none;stroke:black;stroke-width:0.75px;"/>
    </g>
    <g transform="matrix(1.595737,0,0,1.595737,-340.954663,-254.927874)">
        <path d="M346.949,313.956L415.716,313.956" style="fill:none;stroke:black;stroke-width:0.75px;"/>
    </g>
    <g transform="matrix(1.595737,0,0,1.595737,-340.954663,-254.927874)">
        <path d="M367.725,290.839L465.462,290.839" style="fill:none;stroke:black;stroke-width:0.75px;"/>
    </g>
    <g transform="matrix(1.595737,0,0,1.595737,-340.954663,-254.927874)">
        <path d="M437.078,305.47L471.315,305.47" style="fill:none;stroke:black;stroke-width:0.75px;"/>
    </g>
    <g transform="matrix(1.595737,0,0,1.595737,-340.954663,-254.927874)">
        <path d="M431.81,262.454L670.886,262.454" style="fill:none;stroke:black;stroke-width:0.75px;"/>
    </g>
    <g transform="matrix(1.595737,0,0,1.595737,-340.954663,-254.927874)">
        <path d="M501.748,272.403L693.418,272.403" style="fill:none;stroke:black;stroke-width:0.75px;"/>
    </g>
    <g transform="matrix(1.595737,0,0,1.595737,-340.954663,-254.927874)">
        <path d="M444.301,240.781L683.431,240.781" style="fill:none;stroke:black;stroke-width:0.75px;"/>
    </g>
    <g transform="matrix(1.595737,0,0,1.595737,-340.954663,-254.927874)">
        <path d="M471.315,219.438L639.08,219.438" style="fill:none;stroke:black;stroke-width:0.75px;"/>
    </g>
    <g transform="matrix(1.595737,0,0,1.595737,-340.954663,-254.927874)">
        <path d="M459.846,234.069L657.826,234.069" style="fill:none;stroke:black;stroke-width:0.75px;"/>
    </g>
    <g transform="matrix(1.595737,0,0,1.595737,-340.954663,-254.927874)">
        <path d="M510.141,250.73L706.749,250.73" style="fill:none;stroke:black;stroke-width:0.75px;"/>
    </g>
    <g transform="matrix(1.595737,0,0,1.595737,-340.954663,-254.927874)">
        <path d="M608.445,284.127L742.413,284.127" style="fill:none;stroke:black;stroke-width:0.75px;"/>
    </g>
    <g transform="matrix(1.595737,0,0,1.595737,-340.954663,-254.927874)">
        <path d="M629.478,295.851L775.333,295.851" style="fill:none;stroke:black;stroke-width:0.75px;"/>
    </g>
    <g transform="matrix(1.595737,0,0,1.595737,-340.954663,-254.927874)">
        <path d="M657.826,305.801L762.531,305.801" style="fill:none;stroke:black;stroke-width:0.75px;"/>
    </g>
    <g transform="matrix(1.595737,0,0,1.595737,-340.954663,-254.927874)">
        <path d="M683.888,317.525L775.333,317.525" style="fill:none;stroke:black;stroke-width:0.75px;"/>
    </g>
    <g transform="matrix(1.595737,0,0,1.595737,-340.954663,-254.927874)">
        <path d="M691.661,329.249L762.531,329.249" style="fill:none;stroke:black;stroke-width:0.75px;"/>
    </g>
    <g transform="matrix(1.595737,0,0,1.595737,-340.954663,-254.927874)">
        <path d="M691.661,348.229L762.531,348.229" style="fill:none;stroke:black;stroke-width:0.75px;"/>
    </g>
    <g transform="matrix(1.595737,0,0,1.595737,-340.954663,-254.927874)">
        <path d="M691.661,367.209L749.729,367.209" style="fill:none;stroke:black;stroke-width:0.75px;"/>
    </g>
    <g transform="matrix(1.595737,0,0,1.595737,-340.954663,-254.927874)">
        <path d="M705.378,386.19L749.729,386.19" style="fill:none;stroke:black;stroke-width:0.75px;"/>
    </g>
    <g transform="matrix(1.595737,0,0,1.595737,-340.954663,-254.927874)">
        <path d="M705.378,401.268L749.729,401.268" style="fill:none;stroke:black;stroke-width:0.75px;"/>
    </g>
    <g transform="matrix(1.595737,0,0,1.595737,-340.954663,-254.927874)">
        <path d="M705.378,416.345L749.729,416.345" style="fill:none;stroke:black;stroke-width:0.75px;"/>
    </g>
    <g transform="matrix(1.595737,0,0,1.595737,-340.954663,-254.927874)">
        <path d="M700.805,429.158L749.729,429.158" style="fill:none;stroke:black;stroke-width:0.75px;"/>
    </g>
    <g transform="matrix(1.595737,0,0,1.595737,-340.954663,-254.927874)">
        <path d="M700.805,434.645L733.268,434.645" style="fill:none;stroke:black;stroke-width:0.75px;"/>
    </g>
    <g transform="matrix(1.595737,0,0,1.595737,-340.954663,-254.927874)">
        <path d="M700.805,445.527L727.553,445.527" style="fill:none;stroke:black;stroke-width:0.75px;"/>
    </g>
    <g transform="matrix(1.595737,0,0,1.595737,-340.954663,-254.927874)">
        <path d="M700.805,456.409L725.267,456.409" style="fill:none;stroke:black;stroke-width:0.75px;"/>
    </g>
    <g transform="matrix(1.595737,0,0,1.595737,-340.954663,-254.927874)">
        <path d="M700.805,467.291L733.268,467.291" style="fill:none;stroke:black;stroke-width:0.75px;"/>
    </g>
    <g transform="matrix(1.595737,0,0,1.595737,-340.954663,-254.927874)">
        <path d="M700.805,478.173L725.267,478.173" style="fill:none;stroke:black;stroke-width:0.75px;"/>
    </g>
    <g transform="matrix(1.595737,0,0,1.595737,-344.146137,-254.927874)">
        <path d="M705.195,489.055L725.267,489.055" style="fill:none;stroke:black;stroke-width:0.75px;"/>
    </g>
    <g transform="matrix(1.595737,0,0,1.595737,-340.954663,-254.927874)">
        <path d="M703.195,497.833L717.037,497.833" style="fill:none;stroke:black;stroke-width:0.75px;"/>
    </g>
    <g transform="matrix(1.595737,0,0,1.595737,-340.954663,-254.927874)">
        <path d="M704.446,508.715L717.037,508.715" style="fill:none;stroke:black;stroke-width:0.75px;"/>
    </g>
    <g transform="matrix(1.595737,0,0,1.595737,-340.954663,-254.927874)">
        <path d="M704.446,503.274L717.037,503.274" style="fill:none;stroke:black;stroke-width:0.75px;"/>
    </g>
    <g transform="matrix(1.595737,0,0,1.595737,-340.954663,-254.927874)">
        <path d="M624.821,396.339L648.524,396.339" style="fill:none;stroke:black;stroke-width:0.75px;"/>
    </g>
    <g transform="matrix(1.595737,0,0,1.595737,-340.954663,-254.927874)">
        <path d="M631.551,401.606L668.422,401.606" style="fill:none;stroke:black;stroke-width:0.75px;"/>
    </g>
    <g transform="matrix(1.595737,0,0,1.595737,-340.954663,-254.927874)">
        <path d="M624.821,404.532L672.811,404.532" style="fill:none;stroke:black;stroke-width:0.75px;"/>
    </g>
    <g transform="matrix(1.595737,0,0,1.595737,-340.954663,-254.927874)">
        <path d="M661.399,407.458L680.42,407.458" style="fill:none;stroke:black;stroke-width:0.75px;"/>
    </g>
    <g transform="matrix(1.595737,0,0,1.595737,-340.954663,-254.927874)">
        <path d="M672.811,414.189L688.028,414.189" style="fill:none;stroke:black;stroke-width:0.75px;"/>
    </g>
    <g transform="matrix(1.595737,0,0,1.595737,-340.954663,-254.927874)">
        <path d="M527.962,393.12L476.752,393.12" style="fill:none;stroke:black;stroke-width:0.75px;"/>
    </g>
    <g transform="matrix(1.595737,0,0,1.595737,-340.954663,-254.927874)">
        <path d="M535.863,388.145L502.357,388.145" style="fill:none;stroke:black;stroke-width:0.75px;"/>
    </g>
    <g transform="matrix(1.595737,0,0,1.595737,-340.954663,-254.927874)">
        <path d="M488.457,388.145L450.416,388.145" style="fill:none;stroke:black;stroke-width:0.75px;"/>
    </g>
    <g transform="matrix(1.595737,0,0,1.595737,-340.954663,-254.927874)">
        <path d="M540,383.17L499.284,383.17" style="fill:none;stroke:black;stroke-width:0.75px;"/>
    </g>
    <g transform="matrix(1.595737,0,0,1.595737,-340.954663,-254.927874)">
        <path d="M527.962,378.196L519.11,378.196" style="fill:none;stroke:black;stroke-width:0.75px;"/>
    </g>
    <g transform="matrix(1.595737,0,0,1.595737,-340.954663,-257.07003)">
        <path d="M495.188,385.804L461.536,385.804" style="fill:none;stroke:black;stroke-width:0.75px;"/>
    </g>
    <g transform="matrix(1.595737,0,0,1.595737,-340.954663,-254.927874)">
        <path d="M488.457,380.537L467.096,380.537" style="fill:none;stroke:black;stroke-width:0.75px;"/>
    </g>
    <g transform="matrix(1.595737,0,0,1.595737,-340.954663,-254.927874)">
        <path d="M456.854,393.412L438.418,393.412" style="fill:none;stroke:black;stroke-width:0.75px;"/>
    </g>
    <g transform="matrix(1.595737,0,0,1.595737,-340.954663,-254.927874)">
        <path d="M527.962,438.769L519.11,438.769" style="fill:none;stroke:black;stroke-width:0.75px;"/>
    </g>
    <g transform="matrix(1.595737,0,0,1.595737,-340.954663,-254.927874)">
        <path d="M519.11,430.868L488.457,430.868" style="fill:none;stroke:black;stroke-width:0.75px;"/>
    </g>
    <g transform="matrix(1,0,0,1,0,2.780733)">
        <path d="M387.57,432.644L421.61,432.644" style="fill:none;stroke:black;stroke-width:1.2px;"/>
    </g>
    <g transform="matrix(1.595737,0,0,1.595737,-340.954663,-254.927874)">
        <path d="M503.381,438.769L477.776,438.769" style="fill:none;stroke:black;stroke-width:0.75px;"/>
    </g>
    <g transform="matrix(1.595737,0,0,1.595737,-340.954663,-254.927874)">
        <path d="M498.407,444.622L477.776,444.622" style="fill:none;stroke:black;stroke-width:0.75px;"/>
    </g>
    <g transform="matrix(1.595737,0,0,1.595737,-340.954663,-254.927874)">
        <path d="M503.381,435.843L477.776,435.843" style="fill:none;stroke:black;stroke-width:0.75px;"/>
    </g>
    <g transform="matrix(1.595737,0,0,1.595737,-340.954663,-254.927874)">
        <path d="M498.407,456.854L492.18,456.854" style="fill:none;stroke:black;stroke-width:0.75px;"/>
    </g>
    <g transform="matrix(1.595737,0,0,1.595737,-340.954663,-254.927874)">
        <path d="M488.092,459.663L468.769,459.663" style="fill:none;stroke:black;stroke-width:0.75px;"/>
    </g>
    <g transform="matrix(1.595737,0,0,1.595737,-340.954663,-254.927874)">
        <path d="M460.529,450.486L450.603,450.486" style="fill:none;stroke:black;stroke-width:0.75px;"/>
    </g>
    <g transform="matrix(1.595737,0,0,1.595737,-340.954663,-254.927874)">
        <path d="M464.462,438.769L450.603,438.769" style="fill:none;stroke:black;stroke-width:0.75px;"/>
    </g>
    <g transform="matrix(1.595737,0,0,1.595737,-340.954663,-254.927874)">
        <path d="M460.529,420.147L481.692,420.147" style="fill:none;stroke:black;stroke-width:0.75px;"/>
    </g>
    <g transform="matrix(1.595737,0,0,1.595737,-340.954663,-254.927874)">
        <path d="M481.692,414.715L510.158,414.715" style="fill:none;stroke:black;stroke-width:0.75px;"/>
    </g>
    <g transform="matrix(1.595737,0,0,1.595737,-340.954663,-254.927874)">
        <path d="M476.493,441.78L502.958,441.78" style="fill:none;stroke:black;stroke-width:0.75px;"/>
    </g>
    <g transform="matrix(1.595737,0,0,1.595737,-340.954663,-252.656613)">
        <path d="M625.628,455.749L651.397,455.749" style="fill:none;stroke:black;stroke-width:0.75px;"/>
    </g>
    <g transform="matrix(1.595737,0,0,1.595737,-340.954663,-257.557757)">
        <path d="M625.628,455.749L651.397,455.749" style="fill:none;stroke:black;stroke-width:0.75px;"/>
    </g>
    <g transform="matrix(1.595737,0,0,1.595737,-340.954663,-255.286496)">
        <path d="M625.628,451.254L649.749,451.254" style="fill:none;stroke:black;stroke-width:0.75px;"/>
    </g>
    <g transform="matrix(1.595737,0,0,1.595737,-340.954663,-253.015234)">
        <path d="M627.126,446.759L643.157,446.759" style="fill:none;stroke:black;stroke-width:0.75px;"/>
    </g>
    <g transform="matrix(1.595737,0,0,1.595737,-340.954663,-254.927874)">
        <path d="M630.422,460.243L649.749,460.243" style="fill:none;stroke:black;stroke-width:0.75px;"/>
    </g>
    <g transform="matrix(1.595737,0,0,1.595737,-340.954663,-254.927874)">
        <path d="M638.513,464.738L660.836,464.738" style="fill:none;stroke:black;stroke-width:0.75px;"/>
    </g>
    <g transform="matrix(1.595737,0,0,1.595737,-340.954663,-254.927874)">
        <path d="M657.241,453.052L662.784,453.052" style="fill:none;stroke:black;stroke-width:0.75px;"/>
    </g>
    <g transform="matrix(1.595737,0,0,1.595737,-340.954663,-254.927874)">
        <path d="M667.279,460.243L673.272,460.243" style="fill:none;stroke:black;stroke-width:0.75px;"/>
    </g>
    <g transform="matrix(1.595737,0,0,1.595737,-340.954663,-254.927874)">
        <path d="M676.118,453.052L670.275,453.052" style="fill:none;stroke:black;stroke-width:0.75px;"/>
    </g>
    <g transform="matrix(1.595737,0,0,1.595737,-340.954663,-254.927874)">
        <path d="M670.275,445.86L660.012,445.86" style="fill:none;stroke:black;stroke-width:0.75px;"/>
    </g>
    <g transform="matrix(1.595737,0,0,1.595737,-340.954663,-254.927874)">
        <path d="M657.241,437.62L643.607,437.62" style="fill:none;stroke:black;stroke-width:0.75px;"/>
    </g>
    <g transform="matrix(1.595737,0,0,1.595737,-340.954663,-254.927874)">
        <path d="M646.903,432.376L619.035,432.376" style="fill:none;stroke:black;stroke-width:0.75px;"/>
    </g>
    <g transform="matrix(1.595737,0,0,1.595737,-340.954663,-254.927874)">
        <path d="M604.952,447.658L616.938,447.658" style="fill:none;stroke:black;stroke-width:0.75px;"/>
    </g>
    <g transform="matrix(1.595737,0,0,1.595737,-340.954663,-254.927874)">
        <path d="M612.593,444.212L637.314,444.212" style="fill:none;stroke:black;stroke-width:0.75px;"/>
    </g>
    <g transform="matrix(1.595737,0,0,1.595737,-340.954663,-254.927874)">
        <path d="M620.384,468.034L626.976,468.034" style="fill:none;stroke:black;stroke-width:0.75px;"/>
    </g>
    <g transform="matrix(1.595737,0,0,1.595737,-340.954663,-254.927874)">
        <path d="M629.523,476.125L637.314,476.125" style="fill:none;stroke:black;stroke-width:0.75px;"/>
    </g>
    <g transform="matrix(1.595737,0,0,1.595737,-340.954663,-254.927874)">
        <path d="M640.46,480.32L663.234,480.32" style="fill:none;stroke:black;stroke-width:0.75px;"/>
    </g>
    <g transform="matrix(1.595737,0,0,1.595737,-340.954663,-254.927874)">
        <path d="M544.98,520.05L558.839,520.05" style="fill:none;stroke:black;stroke-width:0.75px;"/>
    </g>
    <g transform="matrix(1.595737,0,0,1.595737,-340.954663,-254.927874)">
        <path d="M542.92,524.17L565.581,524.17" style="fill:none;stroke:black;stroke-width:0.75px;"/>
    </g>
    <g transform="matrix(1.595737,0,0,1.595737,-340.954663,-254.927874)">
        <path d="M544.98,528.29L554.251,528.29" style="fill:none;stroke:black;stroke-width:0.75px;"/>
    </g>
    <g transform="matrix(1.595737,0,0,1.595737,-340.954663,-254.927874)">
        <path d="M590.677,530.725L604.161,530.725" style="fill:none;stroke:black;stroke-width:0.75px;"/>
    </g>
    <g transform="matrix(1.595737,0,0,1.595737,-340.954663,-254.927874)">
        <path d="M595.172,528.29L606.034,528.29" style="fill:none;stroke:black;stroke-width:0.75px;"/>
    </g>
    <g transform="matrix(1.595737,0,0,1.595737,-340.954663,-254.927874)">
        <path d="M597.419,525.855L600.603,525.855" style="fill:none;stroke:black;stroke-width:0.75px;"/>
    </g>
    <g transform="matrix(1.595737,0,0,1.595737,-340.954663,-254.927874)">
        <path d="M597.419,533.159L600.603,533.159" style="fill:none;stroke:black;stroke-width:0.75px;"/>
    </g>
    <g transform="matrix(1.595737,0,0,1.595737,-340.954663,-254.927874)">
        <path d="M532.994,537.654L529.436,537.654" style="fill:none;stroke:black;stroke-width:0.75px;"/>
    </g>
    <g transform="matrix(1.595737,0,0,1.595737,-340.954663,-254.927874)">
        <path d="M543.857,493.643L531.215,493.643" style="fill:none;stroke:black;stroke-width:0.75px;"/>
    </g>
    <g transform="matrix(1.595737,0,0,1.595737,-340.954663,-254.927874)">
        <path d="M570.945,722.247L630.687,722.247" style="fill:none;stroke:black;stroke-width:0.75px;"/>
    </g>
    <g transform="matrix(1.595737,0,0,1.595737,-340.954663,-254.927874)">
        <path d="M575.44,713.632L637.617,713.632" style="fill:none;stroke:black;stroke-width:0.75px;"/>
    </g>
    <g transform="matrix(1.595737,0,0,1.595737,-340.954663,-254.927874)">
        <path d="M584.616,705.017L643.048,705.017" style="fill:none;stroke:black;stroke-width:0.75px;"/>
    </g>
    <g transform="matrix(1.595737,0,0,1.595737,-340.954663,-254.927874)">
        <path d="M613.832,696.403L649.041,696.403" style="fill:none;stroke:black;stroke-width:0.75px;"/>
    </g>
    <g transform="matrix(1.595737,0,0,1.595737,-340.954663,-254.927874)">
        <path d="M625.256,689.286L655.596,689.286" style="fill:none;stroke:black;stroke-width:0.75px;"/>
    </g>
    <g transform="matrix(1.595737,0,0,1.595737,-340.954663,-254.927874)">
        <path d="M631.436,682.169L661.589,682.169" style="fill:none;stroke:black;stroke-width:0.75px;"/>
    </g>
    <g transform="matrix(1.595737,0,0,1.595737,-340.954663,-254.927874)">
        <path d="M640.426,675.053L663.649,675.053" style="fill:none;stroke:black;stroke-width:0.75px;"/>
    </g>
    <g transform="matrix(2.765038,0,0,1.595737,-1122.434528,-254.927874)">
        <path d="M637.617,667L668.331,667" style="fill:none;stroke:black;stroke-width:0.53px;"/>
    </g>
    <g transform="matrix(1.595737,0,0,1.595737,-340.954663,-254.927874)">
        <path d="M655.596,659.883L673.387,659.883" style="fill:none;stroke:black;stroke-width:0.75px;"/>
    </g>
    <g transform="matrix(1.595737,0,0,1.595737,-340.954663,-254.927874)">
        <path d="M661.589,654.639L675.822,654.639" style="fill:none;stroke:black;stroke-width:0.75px;"/>
    </g>
    <g transform="matrix(1.595737,0,0,1.595737,-340.954663,-254.927874)">
        <path d="M659.154,645.275L679.193,645.275" style="fill:none;stroke:black;stroke-width:0.75px;"/>
    </g>
    <g transform="matrix(1.595737,0,0,1.595737,-340.954663,-254.927874)">
        <path d="M661.589,649.957L675.822,649.957" style="fill:none;stroke:black;stroke-width:0.75px;"/>
    </g>
    <g transform="matrix(1.595737,0,0,1.595737,-340.954663,-254.927874)">
        <path d="M659.154,636.286L682.939,636.286" style="fill:none;stroke:black;stroke-width:0.75px;"/>
    </g>
    <g transform="matrix(1.595737,0,0,1.595737,-340.954663,-254.927874)">
        <path d="M664.491,631.042L685.186,631.042" style="fill:none;stroke:black;stroke-width:0.75px;"/>
    </g>
    <g transform="matrix(1.595737,0,0,1.595737,-340.954663,-254.927874)">
        <path d="M645.857,636.286L634.995,636.286" style="fill:none;stroke:black;stroke-width:0.75px;"/>
    </g>
    <g transform="matrix(1.595737,0,0,1.595737,-340.954663,-254.927874)">
        <path d="M643.422,645.275L634.995,645.275" style="fill:none;stroke:black;stroke-width:0.75px;"/>
    </g>
    <g transform="matrix(1.595737,0,0,1.595737,-340.954663,-254.927874)">
        <path d="M649.415,627.483L627.316,627.483" style="fill:none;stroke:black;stroke-width:0.75px;"/>
    </g>
    <g transform="matrix(1.595737,0,0,1.595737,-340.954663,-254.927874)">
        <path d="M651.101,618.681L628.814,618.681" style="fill:none;stroke:black;stroke-width:0.75px;"/>
    </g>
    <g transform="matrix(1.595737,0,0,1.595737,-340.954663,-254.927874)">
        <path d="M651.101,612.126L631.436,612.126" style="fill:none;stroke:black;stroke-width:0.75px;"/>
    </g>
    <g transform="matrix(1.595737,0,0,1.595737,-340.954663,-254.927874)">
        <path d="M649.415,603.324L631.436,603.324" style="fill:none;stroke:black;stroke-width:0.75px;"/>
    </g>
    <g transform="matrix(1.595737,0,0,1.595737,-340.954663,-254.927874)">
        <path d="M645.857,596.769L625.069,596.769" style="fill:none;stroke:black;stroke-width:0.75px;"/>
    </g>
    <g transform="matrix(1.595737,0,0,1.595737,-340.954663,-254.927874)">
        <path d="M638.366,590.215L603.157,590.215" style="fill:none;stroke:black;stroke-width:0.75px;"/>
    </g>
    <g transform="matrix(1.595737,0,0,1.595737,-340.954663,-254.927874)">
        <path d="M628.814,583.66L582.556,583.66" style="fill:none;stroke:black;stroke-width:0.75px;"/>
    </g>
    <g transform="matrix(1.595737,0,0,1.595737,-340.954663,-254.927874)">
        <path d="M569.447,586.094L576.001,586.094" style="fill:none;stroke:black;stroke-width:0.75px;"/>
    </g>
    <g transform="matrix(1.595737,0,0,1.595737,-340.954663,-254.927874)">
        <path d="M566.637,583.66L561.019,583.66" style="fill:none;stroke:black;stroke-width:0.75px;"/>
    </g>
    <g transform="matrix(1.595737,0,0,1.595737,-340.954663,-254.927874)">
        <path d="M383.985,565.329L396.159,565.329" style="fill:none;stroke:black;stroke-width:0.75px;"/>
    </g>
    <g transform="matrix(1.595737,0,0,1.595737,-340.954663,-254.927874)">
        <path d="M383.985,557.088L396.159,557.088" style="fill:none;stroke:black;stroke-width:0.75px;"/>
    </g>
    <g transform="matrix(1.595737,0,0,1.595737,-340.954663,-254.927874)">
        <path d="M383.985,548.848L394.286,548.848" style="fill:none;stroke:black;stroke-width:0.75px;"/>
    </g>
    <g transform="matrix(1.595737,0,0,1.595737,-340.954663,-254.927874)">
        <path d="M383.985,540L394.286,540" style="fill:none;stroke:black;stroke-width:0.75px;"/>
    </g>
    <g transform="matrix(1.595737,0,0,1.595737,-340.954663,-254.927874)">
        <path d="M383.985,529.558L390.072,529.558" style="fill:none;stroke:black;stroke-width:0.75px;"/>
    </g>
    <g transform="matrix(1.595737,0,0,1.595737,-340.954663,-254.927874)">
        <path d="M383.985,520.71L387.029,520.71" style="fill:none;stroke:black;stroke-width:0.75px;"/>
    </g>
    <g transform="matrix(1.595737,0,0,1.595737,-340.954663,-254.927874)">
        <path d="M382.113,513.077L387.029,513.077" style="fill:none;stroke:black;stroke-width:0.75px;"/>
    </g>
    <g transform="matrix(1.595737,0,0,1.595737,-340.954663,-254.927874)">
        <path d="M371.063,504.275L389.136,504.275" style="fill:none;stroke:black;stroke-width:0.75px;"/>
    </g>
    <g transform="matrix(1.595737,0,0,1.595737,-340.954663,-254.927874)">
        <path d="M352.71,551.844L362.635,551.844" style="fill:none;stroke:black;stroke-width:0.75px;"/>
    </g>
    <g transform="matrix(1.595737,0,0,1.595737,-340.954663,-254.927874)">
        <path d="M374.06,518.321L366.943,518.321" style="fill:none;stroke:black;stroke-width:0.75px;"/>
    </g>
    <g transform="matrix(1.595737,0,0,1.595737,-340.954663,-254.927874)">
        <path d="M374.06,590.986L366.943,590.986" style="fill:none;stroke:black;stroke-width:0.75px;"/>
    </g>
    <g transform="matrix(1.595737,0,0,1.595737,-340.954663,-254.927874)">
        <path d="M366.943,584.993L360.388,584.993" style="fill:none;stroke:black;stroke-width:0.75px;"/>
    </g>
    <g transform="matrix(1.595737,0,0,1.595737,-340.954663,-254.927874)">
        <path d="M363.665,574.505L357.672,574.505" style="fill:none;stroke:black;stroke-width:0.75px;"/>
    </g>
    <g transform="matrix(1.595737,0,0,1.595737,-340.954663,-254.927874)">
        <path d="M702.888,532.69L707.945,532.69" style="fill:none;stroke:black;stroke-width:0.75px;"/>
    </g>
    <g transform="matrix(1.595737,0,0,1.595737,-340.954663,-254.927874)">
        <path d="M417.74,301.116L355.118,301.116" style="fill:none;stroke:black;stroke-width:0.75px;"/>
    </g>
    <g transform="matrix(1.595737,0,0,1.595737,-340.954663,-254.927874)">
        <path d="M484.166,273.902L394.329,273.902" style="fill:none;stroke:black;stroke-width:0.75px;"/>
    </g>
    <g transform="matrix(1.595737,0,0,1.595737,-340.954663,-254.927874)">
        <path d="M447.88,280.925L378.528,280.925" style="fill:none;stroke:black;stroke-width:0.75px;"/>
    </g>
    <g transform="matrix(1.595737,0,0,1.595737,-340.954663,-254.927874)">
        <path d="M515.476,284.729L552.347,284.729" style="fill:none;stroke:black;stroke-width:0.75px;"/>
    </g>
    <g transform="matrix(1.595737,0,0,1.595737,-340.954663,-254.927874)">
        <path d="M518.695,294.385L546.495,294.385" style="fill:none;stroke:black;stroke-width:0.75px;"/>
    </g>
    <g transform="matrix(1.595737,0,0,1.595737,-340.954663,-254.927874)">
        <path d="M566.101,343.546L593.9,343.546" style="fill:none;stroke:black;stroke-width:0.75px;"/>
    </g>
    <g transform="matrix(1.595737,0,0,1.595737,-340.954663,-254.927874)">
        <path d="M557.907,301.116L593.9,301.116" style="fill:none;stroke:black;stroke-width:0.75px;"/>
    </g>
    <g transform="matrix(1.595737,0,0,1.595737,-340.954663,-254.927874)">
        <path d="M627.552,325.111L638.379,325.111" style="fill:none;stroke:black;stroke-width:0.75px;"/>
    </g>
    <g transform="matrix(1.595737,0,0,1.595737,-340.954663,-254.927874)">
        <path d="M649.499,343.546L678.176,343.546" style="fill:none;stroke:black;stroke-width:0.75px;"/>
    </g>
    <g transform="matrix(1.595737,0,0,1.595737,-340.954663,-254.927874)">
        <path d="M627.552,304.042L603.849,304.042" style="fill:none;stroke:black;stroke-width:0.75px;"/>
    </g>
    <g transform="matrix(1.595737,0,0,1.595737,-340.954663,-254.927874)">
        <path d="M455.903,334.509L432.493,334.509" style="fill:none;stroke:black;stroke-width:0.75px;"/>
    </g>
    <g transform="matrix(1.595737,0,0,1.595737,-340.954663,-254.927874)">
        <path d="M432.493,352.945L415.228,352.945" style="fill:none;stroke:black;stroke-width:0.75px;"/>
    </g>
    <g transform="matrix(1.595737,0,0,1.595737,-340.954663,-254.927874)">
        <path d="M412.009,375.184L367.238,375.184" style="fill:none;stroke:black;stroke-width:0.75px;"/>
    </g>
    <g transform="matrix(1.595737,0,0,1.595737,-340.954663,-254.927874)">
        <path d="M389.623,357.334L348.51,357.334" style="fill:none;stroke:black;stroke-width:0.75px;"/>
    </g>
    <g transform="matrix(1.595737,0,0,1.595737,-340.954663,-254.927874)">
        <path d="M386.844,339.484L343.828,339.484" style="fill:none;stroke:black;stroke-width:0.75px;"/>
    </g>
    <g transform="matrix(1.595737,0,0,1.595737,-340.954663,-254.927874)">
        <path d="M401.475,339.484L423.861,339.484" style="fill:none;stroke:black;stroke-width:0.75px;"/>
    </g>
    <g transform="matrix(1.595737,0,0,1.595737,-340.954663,-254.927874)">
        <path d="M372.212,324.268L450.343,324.268" style="fill:none;stroke:black;stroke-width:0.75px;"/>
    </g>
    <g transform="matrix(1.595737,0,0,1.595737,-340.954663,-254.927874)">
        <path d="M652.416,744.049L688.08,744.049" style="fill:none;stroke:black;stroke-width:0.75px;"/>
    </g>
    <g transform="matrix(1.595737,0,0,1.595737,-340.954663,-254.927874)">
        <path d="M694.938,771.94L742.947,771.94" style="fill:none;stroke:black;stroke-width:0.75px;"/>
    </g>
    <g transform="matrix(1.595737,0,0,1.595737,-340.954663,-254.927874)">
        <path d="M718.943,803.946L784.555,803.946" style="fill:none;stroke:black;stroke-width:0.75px;"/>
    </g>
    <g transform="matrix(1.595737,0,0,1.595737,-340.954663,-254.927874)">
        <path d="M480.042,643.459L462.667,643.459" style="fill:none;stroke:black;stroke-width:0.75px;"/>
    </g>
    <g transform="matrix(1.595737,0,0,1.595737,-340.954663,-254.927874)">
        <path d="M389.511,767.825L368.478,767.825" style="fill:none;stroke:black;stroke-width:0.75px;"/>
    </g>
    <g transform="matrix(1.595737,0,0,1.595737,-340.954663,-254.927874)">
        <path d="M368.478,795.258L332.814,795.258" style="fill:none;stroke:black;stroke-width:0.75px;"/>
    </g>
    <g transform="matrix(1.595737,0,0,1.595737,-340.954663,-254.927874)">
        <path d="M553.655,626.542L587.947,626.542" style="fill:none;stroke:black;stroke-width:0.75px;"/>
    </g>
    <g transform="matrix(1.595737,0,0,1.595737,-340.954663,-254.927874)">
        <path d="M601.664,626.542L616.295,626.542" style="fill:none;stroke:black;stroke-width:0.75px;"/>
    </g>
    <g transform="matrix(1.595737,0,0,1.595737,-340.954663,-254.927874)">
        <path d="M530.337,618.769L510.219,618.769" style="fill:none;stroke:black;stroke-width:0.75px;"/>
    </g>
    <g transform="matrix(1.595737,0,0,1.595737,-340.954663,-254.927874)">
        <path d="M516.62,442.279L530.337,442.279" style="fill:none;stroke:black;stroke-width:0.75px;"/>
    </g>
    <g transform="matrix(1.595737,0,0,1.595737,-340.954663,-254.927874)">
        <path d="M608.98,455.081L620.41,455.081" style="fill:none;stroke:black;stroke-width:0.75px;"/>
    </g>
    <g transform="matrix(1.595737,0,0,1.595737,-340.954663,-254.927874)">
        <path d="M681.679,378.724L695.853,378.724" style="fill:none;stroke:black;stroke-width:0.75px;"/>
    </g>
    <g transform="matrix(1.595737,0,0,1.595737,-340.954663,-254.927874)">
        <path d="M695.853,355.406L737.461,355.406" style="fill:none;stroke:black;stroke-width:0.75px;"/>
    </g>
    <g transform="matrix(1.595737,0,0,1.595737,-340.954663,-254.927874)">
        <path d="M363.482,280.925L363.482,453.052" style="fill:none;stroke:black;stroke-width:0.75px;"/>
    </g>
    <g transform="matrix(1.595737,0,0,1.595737,-340.954663,-254.927874)">
        <path d="M390.072,371.931L390.072,460.243" style="fill:none;stroke:black;stroke-width:0.75px;"/>
    </g>
    <g transform="matrix(1.595737,0,0,1.595737,-336.39379,-254.927874)">
        <path d="M383.985,478.504L383.985,595.162" style="fill:none;stroke:black;stroke-width:0.75px;"/>
    </g>
    <g transform="matrix(1.595737,0,0,1.595737,-340.954663,-254.927874)">
        <path d="M409.278,617.702L409.278,659.883" style="fill:none;stroke:black;stroke-width:0.75px;"/>
    </g>
    <g transform="matrix(1.595737,0,0,1.595737,-340.954663,-254.927874)">
        <path d="M453.863,677.446L453.863,706.343" style="fill:none;stroke:black;stroke-width:0.75px;"/>
    </g>
    <g transform="matrix(1.595737,0,0,1.595737,-340.954663,-254.927874)">
        <path d="M469.225,697.93L469.225,723.169" style="fill:none;stroke:black;stroke-width:0.75px;"/>
    </g>
    <g transform="matrix(1.595737,0,0,1.595737,-340.954663,-254.927874)">
        <path d="M522.629,706.343L522.629,748.042" style="fill:none;stroke:black;stroke-width:0.75px;"/>
    </g>
    <g transform="matrix(1.595737,0,0,1.595737,-340.954663,-254.927874)">
        <path d="M551.892,710.55L551.892,752.798" style="fill:none;stroke:black;stroke-width:0.75px;"/>
    </g>
    <g transform="matrix(1.595737,0,0,2.075268,-340.954663,-610.129308)">
        <path d="M606.393,697.93L606.393,740.727" style="fill:none;stroke:black;stroke-width:0.65px;"/>
    </g>
    <g transform="matrix(1.595737,0,0,2.536425,-340.954663,-960.219302)">
        <path d="M593.751,709.159L593.751,749.761" style="fill:none;stroke:black;stroke-width:0.57px;"/>
    </g>
    <g transform="matrix(1.595737,0,0,2.255835,-340.954663,-749.843752)">
        <path d="M579.218,707.661L579.218,749.761" style="fill:none;stroke:black;stroke-width:0.61px;"/>
    </g>
    <g transform="matrix(1.595737,0,0,1.595737,-340.954663,-254.927874)">
        <path d="M642.912,654.574L642.912,710.55" style="fill:none;stroke:black;stroke-width:0.75px;"/>
    </g>
    <g transform="matrix(1.595737,0,0,1.595737,-340.954663,-254.927874)">
        <path d="M624.477,682.562L624.477,731.674" style="fill:none;stroke:black;stroke-width:0.75px;"/>
    </g>
    <g transform="matrix(1.595737,0,0,1.595737,-340.954663,-254.927874)">
        <path d="M642.912,591.952L642.912,639.942" style="fill:none;stroke:black;stroke-width:0.75px;"/>
    </g>
    <g transform="matrix(1.595737,0,0,1.595737,-340.954663,-254.927874)">
        <path d="M635.889,607.461L635.889,631.456" style="fill:none;stroke:black;stroke-width:0.75px;"/>
    </g>
    <g transform="matrix(1.595737,0,0,1.595737,-340.954663,-254.927874)">
        <path d="M635.889,584.929L635.889,600.438" style="fill:none;stroke:black;stroke-width:0.75px;"/>
    </g>
    <g transform="matrix(1.595737,0,0,1.595737,-340.954663,-254.927874)">
        <path d="M472.311,615.947L472.311,579.369" style="fill:none;stroke:black;stroke-width:0.75px;"/>
    </g>
    <g transform="matrix(1.595737,0,0,1.595737,-340.954663,-254.927874)">
        <path d="M482.846,615.947L482.846,594.325" style="fill:none;stroke:black;stroke-width:0.75px;"/>
    </g>
    <g transform="matrix(1.595737,0,0,1.595737,-340.954663,-254.927874)">
        <path d="M472.023,627.508L472.023,677.839" style="fill:none;stroke:black;stroke-width:0.75px;"/>
    </g>
    <g transform="matrix(1.595737,0,0,1.595737,-340.954663,-254.927874)">
        <path d="M611.312,542.354L611.312,529.185" style="fill:none;stroke:black;stroke-width:0.75px;"/>
    </g>
    <g transform="matrix(1.595737,0,0,1.595737,-340.954663,-254.927874)">
        <path d="M521.476,526.844L521.476,517.188" style="fill:none;stroke:black;stroke-width:0.75px;"/>
    </g>
    <g transform="matrix(1.595737,0,0,1.595737,-340.954663,-254.927874)">
        <path d="M564.492,531.234L564.492,518.358" style="fill:none;stroke:black;stroke-width:0.75px;"/>
    </g>
    <g transform="matrix(1.595737,0,0,1.595737,-340.954663,-254.927874)">
        <path d="M704.321,439.009L704.321,484.073" style="fill:none;stroke:black;stroke-width:0.75px;"/>
    </g>
    <g transform="matrix(1.595737,0,0,1.595737,-340.954663,-254.927874)">
        <path d="M710.467,521.822L710.467,378.435" style="fill:none;stroke:black;stroke-width:0.75px;"/>
    </g>
    <g transform="matrix(1.595737,0,0,1.595737,-340.954663,-254.927874)">
        <path d="M725.39,439.301L725.39,375.217" style="fill:none;stroke:black;stroke-width:0.75px;"/>
    </g>
    <g transform="matrix(1.595737,0,0,1.595737,-340.954663,-254.927874)">
        <path d="M741.777,422.914L741.777,374.631" style="fill:none;stroke:black;stroke-width:0.75px;"/>
    </g>
    <g transform="matrix(1.595737,0,0,1.595737,-340.954663,-254.927874)">
        <path d="M701.103,271.042L701.103,336.005" style="fill:none;stroke:black;stroke-width:0.75px;"/>
    </g>
    <g transform="matrix(1.595737,0,0,1.595737,-340.954663,-254.927874)">
        <path d="M724.513,338.053L724.513,310.839" style="fill:none;stroke:black;stroke-width:0.75px;"/>
    </g>
    <g transform="matrix(1.595737,0,0,1.595737,-340.954663,-254.927874)">
        <path d="M539.281,194.082L539.281,288.892" style="fill:none;stroke:black;stroke-width:0.75px;"/>
    </g>
    <g transform="matrix(1.595737,0,0,1.595737,-340.954663,-254.927874)">
        <path d="M562.106,186.473L562.106,284.795" style="fill:none;stroke:black;stroke-width:0.75px;"/>
    </g>
    <g transform="matrix(1.595737,0,0,1.595737,-340.954663,-254.927874)">
        <path d="M516.749,164.234L516.749,277.772" style="fill:none;stroke:black;stroke-width:0.75px;"/>
    </g>
    <g transform="matrix(1.595737,0,0,1.595737,-340.954663,-254.927874)">
        <path d="M495.387,207.835L495.387,280.113" style="fill:none;stroke:black;stroke-width:0.75px;"/>
    </g>
    <g transform="matrix(1.595737,0,0,1.595737,-340.954663,-254.927874)">
        <path d="M469.343,252.607L469.343,203.738" style="fill:none;stroke:black;stroke-width:0.75px;"/>
    </g>
    <g transform="matrix(1.595737,0,0,1.595737,-340.954663,-254.927874)">
        <path d="M459.687,222.759L459.687,191.155" style="fill:none;stroke:black;stroke-width:0.75px;"/>
    </g>
    <g transform="matrix(1.595737,0,0,1.595737,-340.954663,-254.927874)">
        <path d="M449.737,253.484L449.737,226.563" style="fill:none;stroke:black;stroke-width:0.75px;"/>
    </g>
    <g transform="matrix(1.595737,0,0,1.595737,-340.954663,-254.927874)">
        <path d="M426.327,311.717C426.913,308.205 426.327,227.148 426.327,227.148" style="fill:none;stroke:black;stroke-width:0.75px;"/>
    </g>
    <g transform="matrix(1.595737,0,0,1.595737,-340.954663,-254.927874)">
        <path d="M414.622,266.36L414.622,236.805" style="fill:none;stroke:black;stroke-width:0.75px;"/>
    </g>
    <g transform="matrix(1.595737,0,0,1.595737,-340.954663,-254.927874)">
        <path d="M439.496,252.314L439.496,226.27" style="fill:none;stroke:black;stroke-width:0.75px;"/>
    </g>
    <g transform="matrix(1.595737,0,0,1.595737,-340.954663,-254.927874)">
        <path d="M658.386,214.824L658.386,290.724" style="fill:none;stroke:black;stroke-width:0.75px;"/>
    </g>
    <g transform="matrix(1.595737,0,0,1.595737,-340.954663,-254.927874)">
        <path d="M683.99,213.91L683.99,263.748" style="fill:none;stroke:black;stroke-width:0.75px;"/>
    </g>
    <g transform="matrix(1.595737,0,0,1.595737,-340.954663,-254.927874)">
        <path d="M695.878,242.258L695.878,263.748" style="fill:none;stroke:black;stroke-width:0.75px;"/>
    </g>
    <g transform="matrix(1.595737,0,0,1.595737,-340.954663,-254.927874)">
        <path d="M622.722,199.279L622.722,277.922" style="fill:none;stroke:black;stroke-width:0.75px;"/>
    </g>
    <g transform="matrix(1.595737,0,0,1.595737,-340.954663,-254.927874)">
        <path d="M376.734,466.299L376.734,364.338" style="fill:none;stroke:black;stroke-width:0.75px;"/>
    </g>
    <g transform="matrix(1.595737,0,0,1.595737,-340.954663,-254.927874)">
        <path d="M421.085,591.579L421.085,632.273" style="fill:none;stroke:black;stroke-width:0.75px;"/>
    </g>
    <g transform="matrix(1.595737,0,0,1.595737,-340.954663,-254.927874)">
        <path d="M432.973,614.898L432.973,655.591" style="fill:none;stroke:black;stroke-width:0.75px;"/>
    </g>
    <g transform="matrix(1.595737,0,0,1.595737,-340.954663,-254.927874)">
        <path d="M448.061,656.963L448.061,673.423" style="fill:none;stroke:black;stroke-width:0.75px;"/>
    </g>
    <g transform="matrix(1.595737,0,0,1.595737,-340.954663,-254.927874)">
        <path d="M675.76,617.184L675.76,582.892" style="fill:none;stroke:black;stroke-width:0.75px;"/>
    </g>
    <g transform="matrix(1.595737,0,0,1.595737,-340.954663,-254.927874)">
        <path d="M688.105,617.641L688.105,583.807" style="fill:none;stroke:black;stroke-width:0.75px;"/>
    </g>
    <g transform="matrix(1.595737,0,0,1.595737,-340.954663,-254.927874)">
        <path d="M698.164,576.034L698.164,541.742" style="fill:none;stroke:black;stroke-width:0.75px;"/>
    </g>
    <g transform="matrix(1.595737,0,0,1.595737,-340.954663,-254.927874)">
        <path d="M656.557,693.541L656.557,758.925" style="fill:none;stroke:black;stroke-width:0.75px;"/>
    </g>
    <g transform="matrix(1.595737,0,0,1.595737,-340.954663,-254.927874)">
        <path d="M398.681,666.565L398.681,800.075" style="fill:none;stroke:black;stroke-width:0.75px;"/>
    </g>
    <g transform="matrix(1.595737,0,0,1.595737,-340.954663,-254.927874)">
        <path d="M362.103,782.243L362.103,805.562" style="fill:none;stroke:black;stroke-width:0.75px;"/>
    </g>
    <g transform="matrix(1.595737,0,0,1.595737,-340.954663,-254.927874)">
        <path d="M319.58,817.907L319.58,832.081" style="fill:none;stroke:black;stroke-width:0.75px;"/>
    </g>
    <g transform="matrix(1.595737,0,0,1.595737,-340.954663,-254.927874)">
        <path d="M756.232,794.131L756.232,816.992" style="fill:none;stroke:black;stroke-width:0.75px;"/>
    </g>
    <g transform="matrix(1.595737,0,0,1.595737,-340.954663,-254.927874)">
        <path d="M351.118,536.332L351.118,485.298" style="fill:none;stroke:black;stroke-width:0.75px;"/>
    </g>
    <g transform="matrix(1.595737,0,0,1.595737,-340.954663,-254.927874)">
        <path d="M591.7,550.244L591.7,586.529" style="fill:none;stroke:black;stroke-width:0.75px;"/>
    </g>
    <g transform="matrix(1.595737,0,0,1.595737,-340.954663,-254.927874)">
        <path d="M547.514,546.732L547.514,564.29" style="fill:none;stroke:black;stroke-width:0.75px;"/>
    </g>
    <g transform="matrix(1.595737,0,0,1.595737,-340.954663,-254.927874)">
        <path d="M524.104,561.071L524.104,583.896" style="fill:none;stroke:black;stroke-width:0.75px;"/>
    </g>
    <g transform="matrix(1.595737,0,0,1.595737,-340.954663,-254.927874)">
        <path d="M639.295,461.974L639.295,448.806" style="fill:none;stroke:black;stroke-width:0.75px;"/>
    </g>
    <g transform="matrix(1.595737,0,0,1.595737,-340.954663,-254.927874)">
        <path d="M491.885,429.053L491.885,447.343" style="fill:none;stroke:black;stroke-width:0.75px;"/>
    </g>
    <g transform="matrix(1.595737,0,0,1.595737,-340.954663,-254.927874)">
        <path d="M428.738,696.728L428.738,659.693" style="fill:none;stroke:black;stroke-width:0.75px;"/>
    </g>
    <g transform="matrix(1.595737,0,0,2.392716,-342.71041,-838.629246)">
        <path d="M557.676,756.625L557.676,732.392" style="fill:none;stroke:black;stroke-width:0.59px;"/>
    </g>
    <g transform="matrix(1.595737,0,0,2.125343,-340.954663,-652.977562)">
        <path d="M513.782,751.596L513.782,699.929" style="fill:none;stroke:black;stroke-width:0.64px;"/>
    </g>
    <g transform="matrix(1.595737,0,0,1.595737,-340.954663,-254.927874)">
        <path d="M672.44,622.2L672.44,674.324" style="fill:none;stroke:black;stroke-width:0.75px;"/>
    </g>
    <g transform="matrix(1.595737,0,0,1.595737,-340.954663,-254.927874)">
        <path d="M387.131,603.454L387.131,630.888" style="fill:none;stroke:black;stroke-width:0.75px;"/>
    </g>
    <g transform="matrix(1.595737,0,0,1.595737,-340.954663,-254.927874)">
        <path d="M367.927,528.469L367.927,554.531" style="fill:none;stroke:black;stroke-width:0.75px;"/>
    </g>
    <g transform="matrix(1.595737,0,0,1.595737,-340.954663,-254.927874)">
        <path d="M358.782,505.608L358.782,490.519" style="fill:none;stroke:black;stroke-width:0.75px;"/>
    </g>
    <g transform="matrix(1.595737,0,0,1.595737,-340.954663,-254.927874)">
        <path d="M404.505,424.678L404.505,393.13" style="fill:none;stroke:black;stroke-width:0.75px;"/>
    </g>
    <g transform="matrix(1.595737,0,0,1.595737,-340.954663,-254.927874)">
        <path d="M409.992,389.472L409.992,360.209" style="fill:none;stroke:black;stroke-width:0.75px;"/>
    </g>
    <g transform="matrix(1.595737,0,0,1.595737,-340.954663,-254.927874)">
        <path d="M474.918,292.083L474.918,332.776" style="fill:none;stroke:black;stroke-width:0.75px;"/>
    </g>
    <g transform="matrix(1.595737,0,0,1.595737,-340.954663,-254.927874)">
        <path d="M607.514,314.944L607.514,342.378" style="fill:none;stroke:black;stroke-width:0.75px;"/>
    </g>
    <g transform="matrix(1.595737,0,0,1.595737,-340.954663,-254.927874)">
        <path d="M553.561,305.799L553.561,329.575" style="fill:none;stroke:black;stroke-width:0.75px;"/>
    </g>
    <g transform="matrix(1.595737,0,0,1.595737,-340.954663,-254.927874)">
        <path d="M559.316,329.947L559.316,346.407" style="fill:none;stroke:black;stroke-width:0.75px;"/>
    </g>
    <g transform="matrix(1.595737,0,0,1.595737,-340.954663,-254.927874)">
        <path d="M600.058,317.933L600.058,255.75" style="fill:none;stroke:black;stroke-width:0.75px;"/>
    </g>
    <g transform="matrix(1.595737,0,0,1.595737,-340.954663,-254.927874)">
        <path d="M594.937,286.476L594.937,211.491" style="fill:none;stroke:black;stroke-width:0.75px;"/>
    </g>
    <g transform="matrix(1.595737,0,0,1.595737,-340.954663,-254.927874)">
        <path d="M577.014,226.122L577.014,197.225" style="fill:none;stroke:black;stroke-width:0.75px;"/>
    </g>
    <g transform="matrix(1.595737,0,0,1.595737,-340.954663,-254.927874)">
        <path d="M528.365,192.104L528.365,224.659" style="fill:none;stroke:black;stroke-width:0.75px;"/>
    </g>
    <g transform="matrix(1.595737,0,0,1.595737,-340.954663,-254.927874)">
        <path d="M612.307,789.756L612.307,828.163" style="fill:none;stroke:black;stroke-width:0.75px;"/>
    </g>
    <g transform="matrix(1.595737,0,0,1.595737,-340.954663,-254.927874)">
        <path d="M479.711,749.52L479.711,778.783" style="fill:none;stroke:black;stroke-width:0.75px;"/>
    </g>
    <g transform="matrix(1.595737,0,0,1.595737,-340.954663,-254.927874)">
        <path d="M562.012,802.101L562.012,825.42" style="fill:none;stroke:black;stroke-width:0.75px;"/>
    </g>
    <g transform="matrix(1.595737,0,0,1.595737,-340.954663,-254.927874)">
        <path d="M598.662,462.804L598.662,482.41" style="fill:none;stroke:black;stroke-width:0.75px;"/>
    </g>
    <g transform="matrix(1.595737,0,0,1.595737,-340.954663,-254.927874)">
        <path d="M615.049,511.38L615.049,525.718" style="fill:none;stroke:black;stroke-width:0.75px;"/>
    </g>
    <g transform="matrix(1.595737,0,0,1.595737,-340.954663,-254.927874)">
        <path d="M597.784,441.15L597.784,421.544" style="fill:none;stroke:black;stroke-width:0.75px;"/>
    </g>
    <g transform="matrix(1.595737,0,0,1.595737,-340.954663,-254.927874)">
        <path d="M605.977,425.933L605.977,406.913" style="fill:none;stroke:black;stroke-width:0.75px;"/>
    </g>
    <g transform="matrix(1.595737,0,0,1.595737,-340.954663,-254.927874)">
        <path d="M627.631,604.727L627.631,575.757" style="fill:none;stroke:black;stroke-width:0.75px;"/>
    </g>
    <g transform="matrix(1.595737,0,0,1.595737,-340.954663,-254.927874)">
        <path d="M462.605,689.44L462.605,726.933" style="fill:none;stroke:black;stroke-width:0.75px;"/>
    </g>
    <g transform="matrix(1.595737,0,0,1.595737,-342.5504,-254.927874)">
        <path d="M394.478,666.579L394.478,642.803" style="fill:none;stroke:black;stroke-width:0.75px;"/>
    </g>
    <path d="M423.72,432.165L433.404,432.165" style="fill:none;stroke:black;stroke-width:1.2px;"/>
    <path d="M663.979,862.995L663.979,907.803" style="fill:none;stroke:black;stroke-width:1.2px;"/>
    <path d="M559.732,882.198L559.732,913.747" style="fill:none;stroke:black;stroke-width:1.2px;"/>
    <g transform="matrix(1,0,0,2.217561,0,-1144.154714)">
        <path d="M553.812,899.328L553.812,939.71" style="fill:none;stroke:black;stroke-width:0.7px;"/>
    </g>
    <g transform="matrix(1,0,0,1,-1,0)">
        <path d="M486.508,899.913L486.508,926.542" style="fill:none;stroke:black;stroke-width:1.2px;"/>
    </g>
    <path d="M196.038,1024.875L105.307,1024.875" style="fill:none;stroke:black;stroke-width:1.2px;"/>
    <path d="M571.301,668.375L571.301,646.429" style="fill:none;stroke:black;stroke-width:1.2px;"/>
    <path d="M536.865,591.788L536.865,572.035" style="fill:none;stroke:black;stroke-width:1.2px;"/>
    <path d="M622.458,597.274L622.458,584.472" style="fill:none;stroke:black;stroke-width:1.2px;"/>
    <path d="M390.234,825.001L390.234,873.285" style="fill:none;stroke:black;stroke-width:1.2px;"/>
    <path d="M337.855,793.398L337.855,824.416" style="fill:none;stroke:black;stroke-width:1.2px;"/>
    <path d="M246.306,399.913L246.306,489.072" style="fill:none;stroke:black;stroke-width:1.2px;"/>
    <path d="M287.913,350.99L287.913,285.149" style="fill:none;stroke:black;stroke-width:1.2px;"/>
    <path d="M837.956,397.17L837.956,323.099" style="fill:none;stroke:black;stroke-width:1.2px;"/>
    <path d="M562.879,155.093L562.879,212.247" style="fill:none;stroke:black;stroke-width:1.2px;"/>
    <path d="M134.057,1069.935L81.476,1069.935" style="fill:none;stroke:black;stroke-width:1.2px;"/>
    <path d="M931.032,1060.049L1018.102,1060.049" style="fill:none;stroke:black;stroke-width:1.2px;"/>
    <path d="M283.45,663.852L283.45,721.577" style="fill:none;stroke:black;stroke-width:1.2px;"/>
    <path d="M768.293,660.737L768.293,693.658" style="fill:none;stroke:black;stroke-width:1.2px;"/>
    <path d="M472.97,655.951L472.97,683.75" style="fill:none;stroke:black;stroke-width:1.2px;"/>
    <path d="M501.501,655.951L501.501,674.971" style="fill:none;stroke:black;stroke-width:1.2px;"/>
    <path d="M597.702,650.098L597.702,681.921" style="fill:none;stroke:black;stroke-width:1.2px;"/>
    <path d="M651.471,680.824L651.471,702.405" style="fill:none;stroke:black;stroke-width:1.2px;"/>
    <path d="M626.919,681.32L626.919,639.255" style="fill:none;stroke:black;stroke-width:1.2px;"/>
    <path d="M538.156,638.179L538.156,674.757" style="fill:none;stroke:black;stroke-width:1.2px;"/>
    <path d="M552.819,647.512L552.819,621.541" style="fill:none;stroke:black;stroke-width:1.2px;"/>
    <path d="M307.832,237.616L219.13,237.616" style="fill:none;stroke:black;stroke-width:1.2px;"/>
    <path d="M265.768,309.858L214.101,309.858" style="fill:none;stroke:black;stroke-width:1.2px;"/>
    <path d="M330.694,171.775L400.649,171.775" style="fill:none;stroke:black;stroke-width:1.2px;"/>
    <path d="M642.065,154.401L732.595,154.401" style="fill:none;stroke:black;stroke-width:1.2px;"/>
    <path d="M621.947,87.646L692.359,87.646" style="fill:none;stroke:black;stroke-width:1.2px;"/>
    <path d="M824.041,277.852L888.967,277.852" style="fill:none;stroke:black;stroke-width:1.2px;"/>
    <path d="M528.974,741.429L514.342,741.429" style="fill:none;stroke:black;stroke-width:1.2px;"/>
    <path d="M435.358,711.816L435.358,737.535" style="fill:none;stroke:black;stroke-width:1.2px;"/>
    <path d="M621.934,276.318L621.934,318.84" style="fill:none;stroke:black;stroke-width:1.2px;"/>
    <path d="M570.346,273.2L570.346,304.634" style="fill:none;stroke:black;stroke-width:1.2px;"/>
    <path d="M599.176,270.117L599.176,153.668" style="fill:none;stroke:black;stroke-width:1.2px;"/>
    <path d="M558.276,244.724L501.694,244.724" style="fill:none;stroke:black;stroke-width:1.2px;"/>
    <path d="M437.79,209.164L480.655,209.164" style="fill:none;stroke:black;stroke-width:1.2px;"/>
    <path d="M687.55,241.17L733.844,241.17" style="fill:none;stroke:black;stroke-width:1.2px;"/>
    <path d="M292.335,216.291L120.708,216.291" style="fill:none;stroke:black;stroke-width:1.2px;"/>
    <g transform="matrix(1,0,0,1,0,4)">
        <path d="M772.333,477.22L892.332,477.22" style="fill:none;stroke:black;stroke-width:1.2px;"/>
    </g>
    <path d="M228.149,565.126L201.638,565.126" style="fill:none;stroke:black;stroke-width:1.2px;"/>
    <path d="M798.844,255.36L798.844,90.71" style="fill:none;stroke:black;stroke-width:1.2px;"/>
    <path d="M459.888,912.901L459.888,964.696" style="fill:none;stroke:black;stroke-width:1.2px;"/>
    <path d="M597.823,854.411L597.823,808.094" style="fill:none;stroke:black;stroke-width:1.2px;"/>
    <path d="M619.913,845.86L648.416,845.86" style="fill:none;stroke:black;stroke-width:1.2px;"/>
    <path d="M399.326,808.213L450.988,808.213" style="fill:none;stroke:black;stroke-width:1.2px;"/>
    <path d="M438.518,818.011L438.518,787.726" style="fill:none;stroke:black;stroke-width:1.2px;"/>
    <path d="M562.328,812.666L562.328,781.491" style="fill:none;stroke:black;stroke-width:1.2px;"/>
    <path d="M545.405,816.229L545.405,784.163" style="fill:none;stroke:black;stroke-width:1.2px;"/>
    <path d="M674.559,785.054L674.559,820.683" style="fill:none;stroke:black;stroke-width:1.2px;"/>
    <path d="M700.39,767.24L700.39,788.617" style="fill:none;stroke:black;stroke-width:1.2px;"/>
    <path d="M404.671,717.359L404.671,756.551" style="fill:none;stroke:black;stroke-width:1.2px;"/>
    <path d="M321.589,664.998L321.589,708.323" style="fill:none;stroke:black;stroke-width:1.2px;"/>
    <path d="M371.184,714.023L371.184,744.807" style="fill:none;stroke:black;stroke-width:1.2px;"/>
    <path d="M531.371,849.128L531.371,898.153" style="fill:none;stroke:black;stroke-width:1.2px;"/>
    <path d="M514.84,912.975L514.84,855.969" style="fill:none;stroke:black;stroke-width:1.2px;"/>
    <path d="M458.403,832.596L458.403,858.249" style="fill:none;stroke:black;stroke-width:1.2px;"/>
    <path d="M385.436,749.367L385.436,804.093" style="fill:none;stroke:black;stroke-width:1.2px;"/>
    <path d="M505.719,752.788L505.719,767.609" style="fill:none;stroke:black;stroke-width:1.2px;"/>
    <path d="M608.33,760.198L608.33,769.889" style="fill:none;stroke:black;stroke-width:1.2px;"/>
    <path d="M497.738,749.937L497.738,757.348" style="fill:none;stroke:black;stroke-width:1.2px;"/>
    <path d="M501.046,851.723L501.046,825.892" style="fill:none;stroke:black;stroke-width:1.2px;"/>
    <path d="M566.069,857.958L566.069,834.799" style="fill:none;stroke:black;stroke-width:1.2px;"/>
    <path d="M654.25,821.439L615.059,821.439" style="fill:none;stroke:black;stroke-width:1.2px;"/>
    <path d="M301.135,702.36L341.496,702.36" style="fill:none;stroke:black;stroke-width:1.2px;"/>
    <g transform="matrix(1,0,0,1,-15.619686,32.493511)">
        <path d="M722.836,712.103L747.887,712.103" style="fill:none;stroke:black;stroke-width:1.2px;"/>
    </g>
    <path d="M771.38,721.132L747.865,721.132" style="fill:none;stroke:black;stroke-width:1.2px;"/>
</svg>
